<svg viewBox="0 0 217 46" xmlns="http://www.w3.org/2000/svg" xmlns:svg="http://www.w3.org/2000/svg">
 <g class="layer">
  <title>Layer 1</title>
  <path d="m23,0c12.7,0 23,10.3 23,23l0,16.1c0,1.83 -0.73,3.59 -2.02,4.88c-1.3,1.29 -3.05,2.02 -4.88,2.02l-14.95,0l0,-10.09c0,-2.3 0.14,-4.69 1.35,-6.65c0.86,-1.4 2.02,-2.6 3.39,-3.52c1.37,-0.92 2.92,-1.53 4.55,-1.8l0.44,-0.07c0.18,-0.06 0.34,-0.18 0.45,-0.33c0.11,-0.16 0.17,-0.35 0.17,-0.54c0,-0.19 -0.06,-0.38 -0.17,-0.54c-0.11,-0.15 -0.27,-0.27 -0.45,-0.33l-0.44,-0.07c-2.38,-0.39 -4.58,-1.52 -6.28,-3.22c-1.7,-1.7 -2.83,-3.9 -3.22,-6.28l-0.07,-0.44c-0.06,-0.18 -0.18,-0.34 -0.34,-0.45c-0.15,-0.11 -0.34,-0.17 -0.53,-0.17c-0.19,0 -0.38,0.06 -0.54,0.17c-0.15,0.11 -0.27,0.27 -0.33,0.45l-0.07,0.44c-0.27,1.63 -0.88,3.18 -1.8,4.55c-0.92,1.37 -2.12,2.53 -3.52,3.39c-1.96,1.21 -4.35,1.35 -6.65,1.35l-10.06,0c0.6,-12.17 10.65,-21.85 22.97,-21.85z" fill="#5F6FFF" id="svg_1"/>
  <path d="m0,24.15l10.09,0c2.3,0 4.69,0.14 6.65,1.35c1.53,0.94 2.82,2.23 3.76,3.76c1.21,1.96 1.35,4.35 1.35,6.65l0,10.09l-14.95,0c-1.83,0 -3.59,-0.73 -4.88,-2.02c-1.29,-1.29 -2.02,-3.05 -2.02,-4.88l0,-14.95zm46,-21.85c0,0.61 -0.24,1.2 -0.67,1.63c-0.43,0.43 -1.02,0.67 -1.63,0.67c-0.61,0 -1.19,-0.24 -1.63,-0.67c-0.43,-0.43 -0.67,-1.02 -0.67,-1.63c0,-0.61 0.24,-1.2 0.67,-1.63c0.44,-0.43 1.02,-0.67 1.63,-0.67c0.61,0 1.2,0.24 1.63,0.67c0.43,0.43 0.67,1.02 0.67,1.63z" fill="#5F6FFF" id="svg_2"/>
  <path d="m62.85,28.13l0,-3.78l5.54,0c0.73,0 1.38,-0.15 1.97,-0.44c0.59,-0.29 1.06,-0.71 1.4,-1.26c0.34,-0.56 0.51,-1.24 0.51,-2.04c0,-0.77 -0.17,-1.44 -0.51,-2c-0.34,-0.57 -0.81,-1 -1.4,-1.3c-0.59,-0.29 -1.24,-0.44 -1.97,-0.44l-5.54,0l0,-3.77l6.02,0c1.51,0 2.87,0.3 4.08,0.92c1.22,0.61 2.18,1.48 2.89,2.61c0.7,1.11 1.05,2.44 1.05,3.98c0,1.54 -0.35,2.88 -1.05,4.01c-0.71,1.11 -1.67,1.98 -2.89,2.59c-1.21,0.61 -2.57,0.92 -4.08,0.92l-6.02,0zm-3.4,8.87l0,-23.9l4.62,0l0,23.9l-4.62,0zm20.47,0l0,-16.42l4.46,0l0,16.42l-4.46,0zm4.46,-9.08l-1.74,-1.15c0.21,-2.02 0.8,-3.61 1.77,-4.76c0.98,-1.18 2.38,-1.77 4.22,-1.77c0.79,0 1.5,0.13 2.14,0.41c0.63,0.25 1.21,0.66 1.73,1.25l-2.78,3.2c-0.25,-0.27 -0.56,-0.48 -0.92,-0.61c-0.34,-0.14 -0.74,-0.21 -1.19,-0.21c-0.95,0 -1.74,0.31 -2.35,0.92c-0.59,0.59 -0.88,1.5 -0.88,2.72zm17.08,9.42c-1.73,0 -3.26,-0.36 -4.59,-1.09c-1.34,-0.75 -2.41,-1.77 -3.2,-3.06c-0.77,-1.29 -1.16,-2.76 -1.16,-4.42c0,-1.63 0.38,-3.08 1.13,-4.35c0.77,-1.29 1.81,-2.31 3.12,-3.06c1.32,-0.77 2.78,-1.16 4.39,-1.16c1.59,0 2.98,0.37 4.18,1.09c1.23,0.7 2.18,1.68 2.86,2.93c0.7,1.22 1.05,2.61 1.05,4.18c0,0.29 -0.02,0.6 -0.07,0.92c-0.02,0.29 -0.07,0.63 -0.17,1.02l-13.8,0.03l0,-3.33l11.73,-0.04l-1.8,1.4c-0.05,-0.98 -0.23,-1.79 -0.55,-2.45c-0.29,-0.66 -0.73,-1.16 -1.32,-1.5c-0.57,-0.36 -1.27,-0.54 -2.11,-0.54c-0.88,0 -1.65,0.2 -2.31,0.61c-0.66,0.39 -1.17,0.94 -1.53,1.67c-0.34,0.7 -0.51,1.54 -0.51,2.51c0,1 0.18,1.87 0.54,2.62c0.39,0.73 0.93,1.29 1.63,1.7c0.71,0.39 1.52,0.58 2.45,0.58c0.84,0 1.6,-0.14 2.28,-0.41c0.68,-0.29 1.27,-0.72 1.77,-1.29l2.62,2.62c-0.8,0.93 -1.77,1.63 -2.93,2.11c-1.13,0.47 -2.37,0.71 -3.7,0.71zm16.18,0.03c-0.93,0 -1.85,-0.12 -2.75,-0.37c-0.89,-0.25 -1.7,-0.59 -2.45,-1.02c-0.75,-0.45 -1.39,-1 -1.94,-1.63l2.65,-2.69c0.57,0.64 1.23,1.11 1.98,1.43c0.74,0.32 1.57,0.48 2.48,0.48c0.72,0 1.27,-0.11 1.63,-0.31c0.39,-0.2 0.58,-0.51 0.58,-0.92c0,-0.45 -0.21,-0.8 -0.62,-1.05c-0.38,-0.25 -0.89,-0.46 -1.53,-0.61c-0.63,-0.19 -1.3,-0.38 -2,-0.58c-0.68,-0.23 -1.34,-0.51 -1.97,-0.85c-0.64,-0.36 -1.16,-0.85 -1.57,-1.46c-0.38,-0.64 -0.57,-1.45 -0.57,-2.45c0,-1.04 0.25,-1.95 0.74,-2.72c0.53,-0.77 1.26,-1.37 2.21,-1.8c0.96,-0.43 2.08,-0.65 3.37,-0.65c1.36,0 2.58,0.24 3.67,0.71c1.11,0.48 2.03,1.19 2.76,2.15l-2.69,2.68c-0.5,-0.61 -1.07,-1.05 -1.7,-1.32c-0.61,-0.28 -1.28,-0.41 -2.01,-0.41c-0.65,0 -1.16,0.1 -1.53,0.3c-0.34,0.21 -0.51,0.49 -0.51,0.85c0,0.41 0.2,0.73 0.58,0.96c0.41,0.22 0.93,0.43 1.57,0.61c0.63,0.16 1.29,0.35 1.97,0.58c0.7,0.2 1.36,0.49 1.97,0.88c0.63,0.39 1.14,0.9 1.53,1.53c0.41,0.63 0.61,1.45 0.61,2.45c0,1.61 -0.58,2.89 -1.73,3.84c-1.16,0.93 -2.73,1.39 -4.73,1.39zm17.22,-0.03c-1.68,0 -3.19,-0.37 -4.52,-1.12c-1.34,-0.75 -2.4,-1.77 -3.17,-3.06c-0.77,-1.29 -1.15,-2.74 -1.15,-4.35c0,-1.64 0.38,-3.1 1.15,-4.39c0.77,-1.29 1.83,-2.31 3.17,-3.06c1.35,-0.77 2.86,-1.16 4.52,-1.16c1.29,0 2.48,0.24 3.57,0.72c1.08,0.47 2.03,1.15 2.82,2.04l-2.86,2.89c-0.43,-0.48 -0.95,-0.84 -1.56,-1.09c-0.59,-0.25 -1.25,-0.37 -1.97,-0.37c-0.82,0 -1.56,0.19 -2.21,0.57c-0.64,0.37 -1.15,0.88 -1.53,1.53c-0.37,0.64 -0.55,1.4 -0.55,2.28c0,0.86 0.18,1.63 0.55,2.31c0.38,0.66 0.89,1.18 1.53,1.57c0.65,0.36 1.39,0.54 2.21,0.54c0.74,0 1.41,-0.12 2,-0.37c0.61,-0.27 1.14,-0.66 1.57,-1.16l2.89,2.89c-0.84,0.91 -1.81,1.6 -2.89,2.08c-1.09,0.47 -2.28,0.71 -3.57,0.71zm8.98,-0.34l0,-16.42l4.45,0l0,16.42l-4.45,0zm4.45,-9.08l-1.73,-1.15c0.2,-2.02 0.79,-3.61 1.77,-4.76c0.97,-1.18 2.38,-1.77 4.21,-1.77c0.8,0 1.51,0.13 2.15,0.41c0.63,0.25 1.21,0.66 1.73,1.25l-2.79,3.2c-0.25,-0.27 -0.55,-0.48 -0.92,-0.61c-0.34,-0.14 -0.73,-0.21 -1.19,-0.21c-0.95,0 -1.73,0.31 -2.34,0.92c-0.59,0.59 -0.89,1.5 -0.89,2.72zm9.69,9.08l0,-16.42l4.49,0l0,16.42l-4.49,0zm2.25,-19.07c-0.73,0 -1.33,-0.24 -1.8,-0.72c-0.48,-0.5 -0.72,-1.11 -0.72,-1.83c0,-0.71 0.24,-1.31 0.72,-1.81c0.47,-0.49 1.07,-0.74 1.8,-0.74c0.75,0 1.35,0.25 1.8,0.74c0.48,0.5 0.71,1.1 0.71,1.81c0,0.72 -0.23,1.33 -0.71,1.83c-0.45,0.48 -1.05,0.72 -1.8,0.72zm15.3,19.41c-1.18,0 -2.25,-0.24 -3.2,-0.71c-0.95,-0.5 -1.71,-1.17 -2.27,-2.01c-0.57,-0.84 -0.88,-1.8 -0.92,-2.89l0,-5.81c0.04,-1.09 0.35,-2.06 0.92,-2.89c0.59,-0.87 1.34,-1.55 2.27,-2.04c0.95,-0.5 2.02,-0.75 3.2,-0.75c1.52,0 2.88,0.37 4.08,1.12c1.2,0.75 2.14,1.77 2.82,3.06c0.7,1.29 1.06,2.75 1.06,4.39c0,1.61 -0.36,3.06 -1.06,4.35c-0.68,1.29 -1.62,2.31 -2.82,3.06c-1.2,0.75 -2.56,1.12 -4.08,1.12zm-0.78,-4.11c0.81,0 1.54,-0.19 2.17,-0.55c0.64,-0.38 1.12,-0.9 1.46,-1.56c0.37,-0.68 0.55,-1.46 0.55,-2.35c0,-0.86 -0.18,-1.62 -0.55,-2.28c-0.34,-0.68 -0.82,-1.2 -1.46,-1.56c-0.63,-0.39 -1.36,-0.58 -2.17,-0.58c-0.8,0 -1.51,0.19 -2.15,0.58c-0.63,0.36 -1.13,0.88 -1.49,1.56c-0.34,0.66 -0.51,1.42 -0.51,2.28c0,0.89 0.17,1.67 0.51,2.35c0.36,0.66 0.85,1.18 1.46,1.56c0.64,0.36 1.36,0.55 2.18,0.55zm-8.33,10.64l0,-23.29l4.45,0l0,4.32l-0.75,3.97l0.72,3.98l0,11.02l-4.42,0zm22,-6.87l0,-23.26l4.46,0l0,23.26l-4.46,0zm-3.84,-12.51l0,-3.91l12.14,0l0,3.91l-12.14,0zm21.96,12.85c-1.65,0 -3.15,-0.37 -4.49,-1.12c-1.31,-0.77 -2.36,-1.8 -3.16,-3.1c-0.77,-1.31 -1.15,-2.77 -1.15,-4.38c0,-1.61 0.38,-3.05 1.15,-4.32c0.77,-1.29 1.83,-2.31 3.16,-3.06c1.34,-0.77 2.83,-1.16 4.46,-1.16c1.68,0 3.17,0.39 4.49,1.16c1.33,0.75 2.39,1.77 3.16,3.06c0.77,1.27 1.15,2.71 1.15,4.32c0,1.61 -0.38,3.07 -1.15,4.38c-0.77,1.3 -1.83,2.33 -3.16,3.1c-1.32,0.75 -2.8,1.12 -4.46,1.12zm-0.03,-4.15c0.84,0 1.57,-0.18 2.21,-0.54c0.66,-0.39 1.15,-0.91 1.49,-1.57c0.37,-0.68 0.55,-1.45 0.55,-2.31c0,-0.86 -0.18,-1.62 -0.55,-2.28c-0.36,-0.65 -0.86,-1.16 -1.49,-1.53c-0.64,-0.38 -1.37,-0.57 -2.21,-0.57c-0.82,0 -1.54,0.19 -2.18,0.57c-0.63,0.37 -1.13,0.88 -1.49,1.53c-0.37,0.66 -0.55,1.42 -0.55,2.28c0,0.86 0.18,1.63 0.55,2.31c0.36,0.66 0.86,1.18 1.49,1.57c0.64,0.36 1.36,0.54 2.18,0.54z" fill="#000B6D" id="svg_3"/>
  <rect fill="#ffffff" height="37" id="svg_4" width="161" x="54.5" y="8"/>
  <text fill="#00007f" font-family="Cursive" font-size="31" font-weight="bold" id="svg_5" stroke-width="0" text-anchor="middle" transform="matrix(0.999962 -0.00868004 0.00868004 0.999962 -0.201339 0.942661)" x="129.51" xml:space="preserve" y="33.18">CareVita</text>
 </g>
</svg>